<?xml version="1.0" encoding="UTF-8"?>
<svg xmlns="http://www.w3.org/2000/svg" xmlns:xlink="http://www.w3.org/1999/xlink" width="1080" zoomAndPan="magnify" viewBox="0 0 810 809.999993" height="1080" preserveAspectRatio="xMidYMid meet" version="1.0">
  <rect x="-81" width="972" fill="none" y="-80.999999" height="971.999992" fill-opacity="1"></rect>
  <rect x="-81" width="972" fill="none" y="-80.999999" height="971.999992" fill-opacity="1"></rect>
  <path fill="#201d1e" d="M 390.730469 301.964844 C 391.132812 297.171875 391.453125 293.066406 391.855469 288.917969 C 394.070312 264.964844 402.367188 243.703125 419.839844 226.632812 C 432.480469 214.273438 447.378906 207.105469 465.457031 208.433594 C 479.386719 209.480469 491.304688 215.359375 501.773438 224.417969 C 515.945312 236.738281 524.121094 252.601562 528.226562 270.640625 C 536.5625 306.835938 533.621094 341.625 513.933594 373.914062 C 506.121094 386.757812 495.773438 397.144531 481.523438 402.742188 C 461.671875 410.554688 443.230469 407.253906 426.28125 394.730469 C 416.78125 387.726562 409.933594 378.382812 404.339844 368.117188 C 403.492188 366.585938 402.648438 365.058594 401.960938 363.769531 C 398.5 369.246094 395.5625 374.960938 391.574219 379.875 C 379.578125 394.730469 363.390625 402.339844 344.789062 405.117188 C 333.355469 406.851562 321.878906 407.089844 310.527344 404.515625 C 293.132812 400.609375 278.71875 392.355469 271.230469 375.203125 C 265.714844 362.601562 266.195312 350.121094 273.886719 338.484375 C 280.851562 327.894531 295.789062 324.027344 306.941406 329.664062 C 318.578125 335.503906 324.496094 350.039062 320.269531 362.15625 C 314.671875 378.101562 296.753906 383.859375 282.261719 374.398438 C 281.132812 373.671875 280.085938 372.90625 278.558594 371.863281 C 279.644531 382.371094 284.515625 389.820312 292.929688 395.011719 C 305.976562 403.066406 320.066406 404.070312 334.5625 400.449219 C 340.523438 398.957031 343.582031 394.007812 345.996094 388.730469 C 350.144531 379.671875 351.875 369.96875 352.117188 360.144531 C 352.398438 348.144531 352.398438 336.148438 351.511719 324.191406 C 351.03125 317.546875 349.136719 310.824219 346.722656 304.582031 C 339.835938 286.707031 319.664062 284.570312 307.585938 289.363281 C 297.683594 293.308594 291.199219 300.957031 285.644531 309.613281 C 284.636719 311.144531 284.476562 314.125 281.578125 313.238281 C 281.253906 313.15625 281.738281 309.777344 282.140625 308.003906 C 286.488281 287.511719 291.039062 267.058594 295.183594 246.523438 C 297.277344 236.214844 298.6875 225.746094 300.136719 215.320312 C 300.582031 212.097656 302.070312 211.613281 304.808594 212.179688 C 323.851562 216.003906 343.136719 216.726562 362.464844 215.722656 C 370.757812 215.277344 378.972656 213.546875 387.226562 212.421875 C 387.953125 212.300781 388.636719 212.097656 389.359375 212.019531 C 392.179688 211.695312 392.902344 212.378906 392.257812 215.117188 C 389.964844 224.660156 385.816406 233.15625 378.410156 239.839844 C 369.027344 248.375 357.632812 251.917969 345.394531 253.449219 C 331.222656 255.21875 317.046875 254.65625 302.914062 252.964844 C 298.445312 252.441406 297.320312 253.167969 296.351562 257.554688 C 293.453125 270.480469 290.554688 283.402344 287.65625 296.289062 C 287.574219 296.691406 287.535156 297.054688 287.414062 298.101562 C 322.847656 272.855469 357.070312 274.789062 390.648438 301.882812 Z M 484.140625 308.285156 C 483.09375 287.027344 482.085938 263.554688 480.757812 240.121094 C 480.3125 232.269531 478.703125 224.578125 473.992188 217.9375 C 467.148438 208.273438 453.902344 208.113281 446.855469 217.574219 C 442.992188 222.726562 440.574219 228.605469 440.253906 234.925781 C 439.207031 254.816406 437.878906 274.746094 438.039062 294.675781 C 438.199219 318.875 439.527344 343.074219 440.855469 367.230469 C 441.300781 375.164062 442.707031 383.175781 444.722656 390.90625 C 446.332031 397.144531 450.519531 402.058594 457.445312 403.386719 C 466.707031 405.160156 475.5625 399.359375 478.101562 389.375 C 479.710938 382.933594 480.917969 376.289062 481.320312 369.6875 C 482.488281 350 483.171875 330.269531 484.097656 308.328125 Z M 484.140625 308.285156 " fill-opacity="1" fill-rule="nonzero"></path>
  <path fill="#201d1e" d="M 497.828125 547.085938 C 503.183594 547.085938 503.546875 547.488281 503.464844 553.285156 C 504.230469 552.601562 504.914062 552.199219 505.359375 551.59375 C 510.109375 545.113281 516.109375 544.832031 524.121094 548.414062 C 528.308594 550.265625 532.292969 550.628906 536.5625 549.339844 C 538.210938 548.816406 539.824219 548.132812 541.433594 547.527344 C 541.796875 547.808594 542.15625 548.132812 542.5625 548.414062 C 542.359375 551.3125 542.320312 554.253906 541.957031 557.109375 C 541.230469 562.628906 540.347656 568.144531 539.542969 573.660156 C 539.863281 573.859375 540.226562 574.019531 540.546875 574.222656 C 542.078125 572.773438 543.609375 571.363281 545.058594 569.835938 C 547.675781 567.175781 550.332031 564.640625 552.746094 561.78125 C 556.089844 557.796875 559.308594 553.730469 562.410156 549.542969 C 564.019531 547.367188 565.027344 544.789062 566.636719 542.617188 C 567.203125 541.851562 568.851562 541.289062 569.738281 541.570312 C 570.625 541.851562 571.710938 543.21875 571.75 544.1875 C 571.871094 546.761719 571.75 549.378906 571.308594 551.957031 C 569.65625 561.5 567.847656 571 565.914062 581.46875 C 567.964844 580.34375 569.214844 579.617188 570.503906 578.972656 C 576.785156 575.753906 583.105469 572.53125 589.425781 569.429688 C 590.070312 569.109375 591.640625 567.578125 591.882812 570.035156 C 592.445312 569.914062 593.292969 569.953125 593.574219 569.59375 C 595.789062 566.976562 597.761719 569.148438 600.339844 569.3125 C 594.21875 572.25 588.582031 574.625 583.265625 577.644531 C 577.589844 580.867188 572.195312 584.609375 566.757812 588.273438 C 565.871094 588.878906 565.109375 590.167969 564.90625 591.253906 C 562.492188 604.300781 560.15625 617.304688 554.800781 629.542969 C 551.539062 636.953125 548.679688 644.5625 545.257812 651.929688 C 543.125 656.480469 539.78125 660.222656 535.472656 663.003906 C 531.167969 665.820312 526.816406 665.699219 522.550781 662.921875 C 515.222656 658.128906 512.925781 652.011719 514.941406 643.515625 C 516.589844 636.628906 519.773438 630.511719 523.960938 624.875 C 527.664062 619.878906 530.804688 614.324219 535.03125 609.816406 C 541.957031 602.445312 549.484375 595.683594 556.933594 588.839844 C 558.988281 586.945312 560.398438 585.175781 560.800781 582.195312 C 561.925781 573.417969 563.417969 564.679688 564.785156 555.902344 C 564.824219 555.539062 564.785156 555.179688 564.664062 553.851562 C 561.847656 557.675781 559.472656 560.773438 557.175781 563.957031 C 553.792969 568.585938 550.453125 573.257812 547.109375 577.925781 C 545.417969 580.300781 543.324219 581.914062 540.265625 581.1875 C 537.6875 580.585938 534.789062 577.042969 534.832031 574.183594 C 534.949219 568.667969 535.355469 563.148438 535.714844 557.632812 C 535.796875 556.507812 536.039062 555.378906 536.117188 554.777344 C 530.242188 553.042969 524.605469 551.351562 518.925781 549.824219 C 518.039062 549.582031 516.875 549.863281 516.027344 550.304688 C 512.082031 552.199219 509.304688 555.378906 507.574219 559.246094 C 504.714844 565.6875 502.21875 572.332031 499.558594 578.894531 C 499.238281 579.660156 499.035156 580.503906 498.59375 581.1875 C 497.789062 582.515625 497.304688 584.851562 495.132812 583.886719 C 493.15625 583 491.105469 581.832031 491.75 578.691406 C 493.398438 570.519531 494.808594 562.34375 495.734375 553.527344 C 490.945312 556.789062 486.152344 560.050781 481.320312 563.269531 C 473.589844 568.34375 465.699219 572.972656 456.238281 574.101562 C 446.453125 575.230469 440.777344 569.550781 442.183594 559.808594 C 442.304688 559.082031 442.425781 558.398438 442.546875 557.632812 C 442.226562 557.472656 441.945312 557.191406 441.703125 557.230469 C 434.171875 558.722656 428.011719 555.300781 422.175781 551.394531 C 417.707031 548.414062 415.449219 549.664062 412.753906 552.804688 C 410.699219 555.179688 409.089844 558.078125 407.761719 560.976562 C 404.296875 568.546875 401.277344 576.355469 397.65625 583.804688 C 396.648438 585.898438 394.3125 587.953125 392.097656 588.675781 C 391.132812 589 388.757812 585.980469 387.628906 584.128906 C 386.621094 582.515625 385.898438 580.382812 386.019531 578.53125 C 386.664062 568.746094 387.546875 559.003906 388.515625 549.21875 C 388.675781 547.730469 387.992188 545.3125 390.6875 545.191406 C 392.542969 545.113281 394.957031 548.496094 394.753906 550.789062 C 394.113281 557.554688 393.425781 564.277344 392.742188 571.042969 C 392.621094 572.167969 392.542969 573.296875 393.144531 574.746094 C 394.554688 571.726562 395.84375 568.625 397.453125 565.726562 C 400.554688 560.011719 403.613281 554.253906 407.117188 548.777344 C 409.53125 544.992188 413.074219 544.347656 418.148438 546.078125 C 421.046875 547.085938 424.027344 548.171875 426.644531 549.742188 C 430.832031 552.28125 435.21875 552.480469 439.890625 551.996094 C 444.078125 551.554688 447.582031 550.386719 450.558594 547.085938 C 453.539062 543.785156 457.644531 542.011719 462.15625 541.449219 C 464.691406 541.125 466.101562 542.214844 466.988281 544.429688 C 468.476562 548.132812 467.589844 552.039062 464.570312 554.574219 C 462.4375 556.386719 460.382812 558.359375 458.089844 559.96875 C 453.539062 563.230469 450.960938 562.988281 446.574219 558.679688 C 446.011719 561.136719 444.722656 563.511719 445.367188 565.082031 C 445.890625 566.289062 448.828125 566.976562 450.679688 567.054688 C 453.460938 567.175781 456.4375 566.976562 459.054688 566.089844 C 468.234375 563.03125 477.292969 559.6875 486.394531 556.386719 C 488.367188 555.660156 490.179688 554.574219 492.152344 554.011719 C 495.492188 553.003906 497.949219 551.3125 497.75 547.246094 Z M 558.949219 594.554688 C 557.660156 595.441406 557.097656 595.722656 556.691406 596.125 C 550.976562 601.882812 544.9375 607.398438 539.660156 613.519531 C 529.3125 625.519531 520.496094 638.28125 520.699219 655.230469 C 520.738281 659.21875 521.542969 660.546875 526.054688 660.144531 C 531.851562 659.621094 535.675781 655.996094 538.574219 651.285156 C 547.03125 637.675781 552.265625 622.820312 556.167969 607.398438 C 557.175781 603.414062 557.902344 599.386719 558.949219 594.554688 Z M 451.847656 554.292969 C 457.527344 552.601562 462.355469 549.902344 465.015625 543.582031 C 458.410156 545.191406 454.546875 549.058594 451.847656 554.292969 Z M 536.925781 611.988281 C 544.414062 604.78125 551.863281 597.574219 559.351562 590.367188 C 559.148438 590.167969 558.90625 589.925781 558.707031 589.722656 C 550.371094 596.046875 543.042969 603.414062 536.925781 611.988281 Z M 545.820312 641.945312 C 551.339844 631.195312 555.847656 620.042969 557.660156 607.964844 C 553.714844 619.277344 549.769531 630.589844 545.820312 641.945312 Z M 472.179688 563.390625 C 472.34375 563.632812 472.503906 563.875 472.664062 564.117188 C 476.488281 562.585938 480.3125 561.058594 484.140625 559.527344 C 484.058594 559.285156 483.9375 559.042969 483.859375 558.84375 C 479.953125 560.371094 476.046875 561.902344 472.179688 563.390625 Z M 566.4375 585.898438 C 566.558594 585.980469 566.71875 586.058594 566.839844 586.140625 C 568.289062 585.011719 569.738281 583.886719 571.066406 582.839844 C 570.542969 582.4375 569.859375 581.953125 568.691406 581.066406 C 567.886719 582.796875 567.160156 584.328125 566.4375 585.859375 Z M 566.4375 585.898438 " fill-opacity="1" fill-rule="nonzero"></path>
  <path fill="#201d1e" d="M 275.375 479.644531 C 276.664062 479.402344 277.914062 478.960938 279.199219 478.960938 C 283.386719 478.921875 285.121094 477.351562 285.160156 473.121094 C 285.199219 455.445312 285.242188 437.8125 285.242188 420.136719 C 285.242188 416.109375 284.074219 415.105469 279.886719 415.105469 C 278.636719 415.105469 277.429688 414.699219 276.179688 414.5 C 276.179688 414.175781 276.179688 413.855469 276.179688 413.535156 C 277.75 413.332031 279.320312 412.96875 280.890625 412.96875 C 291.640625 412.890625 302.390625 412.847656 313.144531 412.847656 C 318.859375 412.847656 324.335938 413.894531 329.53125 416.433594 C 334.765625 418.96875 337.945312 422.671875 338.066406 428.753906 C 338.1875 434.832031 335.40625 438.859375 330.011719 441.316406 C 328.242188 442.121094 326.550781 443.046875 324.375 444.09375 C 327.558594 445.261719 330.292969 446.105469 332.910156 447.234375 C 340.441406 450.535156 344.023438 456.292969 343.660156 464.265625 C 343.339844 471.511719 339.355469 476.988281 331.421875 479 C 326.066406 480.371094 320.308594 480.730469 314.714844 480.851562 C 302.070312 481.09375 289.429688 480.933594 276.785156 480.933594 C 276.382812 480.933594 276.019531 480.8125 275.617188 480.773438 C 275.539062 480.410156 275.457031 480.007812 275.335938 479.644531 Z M 320.710938 463.902344 L 320.351562 463.902344 C 320.351562 462.613281 320.550781 461.324219 320.351562 460.117188 C 319.585938 456.375 319.0625 452.507812 317.691406 448.964844 C 316.445312 445.664062 310.726562 443.730469 307.101562 445.019531 C 303.679688 446.226562 305.652344 449.285156 305.292969 451.542969 C 305.171875 452.265625 305.292969 452.992188 305.292969 453.714844 C 305.292969 460.480469 305.210938 467.285156 305.171875 474.046875 C 305.171875 476.464844 305.492188 478.597656 308.230469 479.566406 C 312.738281 481.136719 318.539062 478.113281 319.464844 473.484375 C 320.066406 470.34375 320.351562 467.125 320.753906 463.902344 Z M 305.128906 429.113281 C 305.128906 429.113281 305.210938 429.113281 305.25 429.113281 C 305.25 432.136719 305.25 435.15625 305.25 438.175781 C 305.25 443.207031 306.863281 444.496094 311.894531 443.53125 C 315.316406 442.886719 317.570312 440.628906 317.773438 437.449219 C 318.054688 431.894531 318.214844 426.214844 317.289062 420.78125 C 316.324219 415.265625 314.148438 414.378906 308.59375 414.5 C 306.015625 414.539062 305.089844 415.667969 305.171875 418.164062 C 305.292969 421.828125 305.171875 425.453125 305.171875 429.113281 Z M 305.128906 429.113281 " fill-opacity="1" fill-rule="nonzero"></path>
  <path fill="#201d1e" d="M 227.625 505.65625 C 229.679688 502.59375 231.8125 499.292969 234.105469 496.113281 C 237.769531 491.039062 242.160156 486.8125 247.917969 484.195312 C 254.117188 481.375 261.242188 483.347656 265.511719 488.625 C 269.859375 494.019531 271.792969 500.378906 273.203125 506.863281 C 275.578125 517.652344 275.253906 528.605469 274.046875 539.515625 C 272.71875 551.875 268.53125 563.511719 263.097656 574.585938 C 259.433594 582.035156 254.4375 588.675781 247.917969 593.910156 C 243.367188 597.574219 238.816406 601.199219 233.945312 604.378906 C 223.035156 611.546875 209.34375 609.25 201.089844 599.023438 C 200.285156 598.019531 200.003906 596.367188 199.964844 595 C 199.882812 588.476562 202.824219 582.960938 205.921875 577.484375 C 206.566406 576.316406 207.171875 575.066406 207.9375 573.941406 C 209.507812 571.6875 210.269531 569.753906 207.53125 567.578125 C 206.6875 566.894531 206.605469 564.601562 206.929688 563.269531 C 209.0625 554.453125 210.957031 545.597656 213.773438 536.980469 C 216.429688 528.886719 218 520.671875 218.6875 512.257812 C 219.25 505.816406 219.894531 499.375 220.617188 492.972656 C 220.738281 492.085938 221.664062 491.28125 222.1875 490.4375 C 223.113281 491.078125 224.683594 491.601562 224.886719 492.449219 C 225.972656 496.757812 226.699219 501.144531 227.625 505.65625 Z M 259.914062 563.714844 C 261.765625 557.59375 263.820312 551.957031 265.191406 546.160156 C 268.25 533.355469 269.175781 520.429688 267 507.347656 C 265.996094 501.347656 264.625 495.46875 261.203125 490.316406 C 259.191406 487.214844 257.5 486.449219 254.117188 487.9375 C 251.5 489.105469 248.84375 490.554688 246.789062 492.527344 C 243.449219 495.75 240.1875 499.171875 237.609375 502.996094 C 230.804688 512.984375 224.523438 523.289062 222.269531 535.488281 C 221.34375 540.402344 219.933594 545.191406 218.808594 550.066406 C 217.960938 553.730469 217.195312 557.433594 216.351562 561.136719 C 222.351562 556.105469 228.226562 551.191406 234.105469 546.238281 C 234.507812 547.570312 234.46875 548.496094 234.027344 549.140625 C 231.769531 552.039062 229.316406 554.777344 227.101562 557.675781 C 222.914062 563.070312 218.644531 568.425781 214.738281 574.019531 C 210.554688 580.019531 207.332031 586.664062 206.527344 594.03125 C 205.882812 600.070312 207.492188 604.179688 213.613281 603.894531 C 216.753906 603.734375 220.054688 603.492188 222.992188 602.488281 C 233.140625 599.023438 241.191406 592.621094 247.59375 584.046875 C 249.042969 582.113281 250.613281 580.300781 252.144531 578.449219 C 252.425781 578.652344 252.707031 578.851562 252.988281 579.09375 C 249.367188 583.925781 245.742188 588.71875 242.160156 593.550781 C 242.359375 593.628906 242.5625 593.710938 242.761719 593.789062 C 244.414062 593.105469 246.023438 592.382812 247.351562 591.816406 C 248.722656 589.644531 250.050781 587.589844 251.339844 585.457031 C 252.304688 583.886719 252.828125 581.710938 254.238281 580.785156 C 256.25 579.417969 256.695312 577.644531 257.054688 575.589844 C 257.296875 574.304688 257.175781 572.410156 257.984375 571.925781 C 260.359375 570.398438 260.761719 567.621094 262.453125 565.726562 C 262.855469 565.242188 262.894531 564.398438 263.097656 563.554688 C 261.765625 563.671875 260.921875 563.714844 259.957031 563.792969 Z M 267.082031 545.3125 C 267.445312 545.355469 267.847656 545.394531 268.210938 545.433594 C 269.054688 537.222656 269.941406 529.007812 270.785156 520.835938 C 270.585938 520.835938 270.382812 520.835938 270.183594 520.792969 C 269.136719 528.96875 268.089844 537.140625 267.042969 545.355469 Z M 264.222656 557.433594 C 266.519531 557.433594 267.203125 555.136719 266.558594 547.367188 C 265.792969 550.75 265.027344 554.089844 264.222656 557.433594 Z M 264.222656 557.433594 " fill-opacity="1" fill-rule="nonzero"></path>
  <path fill="#201d1e" d="M 453.457031 411.398438 L 453.457031 437.609375 C 453.21875 437.609375 452.976562 437.691406 452.773438 437.730469 C 452.492188 436.726562 452.171875 435.679688 451.929688 434.671875 C 449.914062 425.894531 445.726562 418.769531 437.191406 414.863281 C 431.394531 412.203125 424.953125 414.175781 422.699219 419.25 C 420.160156 425.046875 422.898438 431.492188 429.222656 433.746094 C 434.496094 435.636719 440.011719 436.886719 445.40625 438.617188 C 454.425781 441.515625 459.738281 447.957031 460.222656 456.414062 C 460.949219 468.25 454.667969 477.027344 443.191406 481.175781 C 434.976562 484.15625 427.167969 482.625 419.316406 480.128906 C 418.230469 479.765625 417.101562 479.484375 416.054688 479.042969 C 411.828125 477.351562 407.921875 476.949219 404.578125 482.0625 L 404.578125 450.453125 C 405.183594 451.824219 405.546875 452.347656 405.707031 452.949219 C 408.121094 462.492188 413.878906 470.023438 420.5625 476.867188 C 424.148438 480.492188 428.859375 481.578125 433.851562 481.054688 C 438.28125 480.570312 441.5 477.308594 442.546875 472.398438 C 443.675781 467.042969 441.863281 462.210938 437.03125 459.957031 C 432.242188 457.703125 427.085938 456.210938 422.175781 454.238281 C 418.992188 452.992188 415.613281 451.902344 412.792969 450.050781 C 402.445312 443.167969 401.238281 428.832031 410.214844 420.21875 C 418.027344 412.726562 427.289062 410.632812 437.714844 413.414062 C 438.84375 413.695312 439.890625 414.097656 441.019531 414.417969 C 445.527344 415.789062 449.996094 417.117188 453.5 411.398438 Z M 453.457031 411.398438 " fill-opacity="1" fill-rule="nonzero"></path>
  <path fill="#201d1e" d="M 384.289062 462.613281 C 383.5625 460.15625 383.039062 457.621094 382.03125 455.285156 C 380.019531 450.695312 376.757812 447.273438 371.765625 445.90625 C 369.027344 445.140625 368.0625 445.90625 368.019531 448.722656 C 368.019531 457.378906 368.0625 466.078125 368.019531 474.734375 C 368.019531 477.550781 369.351562 478.960938 372.085938 479.242188 C 379.535156 480.007812 385.617188 477.875 390.003906 471.472656 C 394.191406 465.390625 397.695312 459.03125 398.621094 451.582031 C 398.703125 451.019531 398.941406 450.496094 399.707031 449.972656 C 399.789062 450.816406 399.988281 451.664062 399.988281 452.507812 C 399.988281 460.882812 399.910156 469.21875 400.03125 477.589844 C 400.03125 480.167969 399.183594 481.09375 396.609375 481.09375 C 378.207031 481.015625 359.847656 481.015625 341.449219 481.015625 C 340.480469 481.015625 339.515625 480.8125 338.546875 480.730469 C 338.546875 480.410156 338.546875 480.089844 338.546875 479.765625 C 339.917969 479.566406 341.246094 479.324219 342.613281 479.160156 C 347.769531 478.476562 348.613281 477.550781 348.613281 472.359375 C 348.613281 457.300781 348.613281 442.28125 348.613281 427.222656 C 348.613281 425.046875 348.777344 422.835938 348.734375 420.660156 C 348.65625 415.910156 347.003906 414.296875 342.292969 414.175781 C 341.164062 414.175781 340.039062 414.175781 338.910156 414.175781 C 338.871094 413.855469 338.832031 413.535156 338.789062 413.210938 C 340.078125 413.011719 341.367188 412.6875 342.613281 412.6875 C 359.726562 412.605469 376.878906 412.566406 393.992188 412.488281 C 395.519531 412.488281 396.730469 412.566406 396.730469 414.5 C 396.730469 421.789062 396.730469 429.074219 396.324219 436.363281 C 391.132812 420.902344 380.542969 412.445312 368.585938 415.023438 C 368.585938 420.742188 368.585938 426.578125 368.585938 432.375 C 368.585938 434.871094 368.503906 437.410156 368.542969 439.90625 C 368.542969 442.964844 369.589844 443.691406 372.730469 442.886719 C 377.644531 441.636719 382.796875 435.679688 383.644531 430.203125 C 383.765625 429.316406 383.925781 428.472656 384.648438 427.625 L 384.648438 462.734375 C 384.527344 462.734375 384.367188 462.734375 384.246094 462.734375 Z M 384.289062 462.613281 " fill-opacity="1" fill-rule="nonzero"></path>
  <path fill="#201d1e" d="M 509.949219 481.054688 L 470.449219 481.054688 C 470.410156 480.8125 470.371094 480.570312 470.328125 480.328125 C 471.859375 480.007812 473.347656 479.726562 474.878906 479.402344 C 478.945312 478.597656 480.195312 477.269531 480.234375 473.082031 C 480.3125 464.425781 480.234375 455.730469 480.234375 447.074219 C 480.234375 437.691406 480.234375 428.269531 480.234375 418.886719 C 480.234375 415.023438 479.066406 414.378906 475.683594 416.269531 C 466.746094 421.265625 461.59375 428.996094 459.214844 439.703125 C 458.976562 438.65625 458.855469 438.375 458.8125 438.054688 C 458.8125 437.730469 458.8125 437.410156 458.8125 437.128906 C 458.8125 430.847656 458.8125 424.605469 458.894531 418.324219 C 458.933594 414.78125 460.0625 413.535156 463.605469 413.492188 C 482.40625 413.414062 501.210938 413.414062 519.972656 413.371094 C 522.589844 413.371094 523.074219 414.902344 523.074219 417.035156 C 523.074219 424.445312 523.074219 431.851562 523.074219 439.261719 C 522.792969 439.300781 522.511719 439.382812 522.269531 439.421875 C 521.988281 438.457031 521.664062 437.488281 521.382812 436.484375 C 519.007812 427.867188 514.296875 420.980469 506.363281 416.59375 C 502.5 414.460938 501.371094 415.144531 501.371094 419.574219 C 501.371094 437.730469 501.410156 455.929688 501.492188 474.089844 C 501.492188 477.953125 502.296875 478.800781 506.042969 479.523438 C 507.371094 479.765625 508.738281 480.046875 510.070312 480.289062 C 510.027344 480.53125 509.988281 480.773438 509.949219 481.015625 Z M 509.949219 481.054688 " fill-opacity="1" fill-rule="nonzero"></path>
  <path fill="#201d1e" d="M 502.539062 625.113281 C 500.082031 625.558594 497.585938 626 495.050781 626.484375 C 494.96875 626.28125 494.890625 626.121094 494.808594 625.921875 C 495.855469 625.074219 496.902344 624.230469 498.472656 622.941406 C 496.378906 622.09375 494.808594 621.167969 493.117188 620.808594 C 486.113281 619.238281 479.105469 617.707031 472.019531 616.335938 C 468.679688 615.695312 465.257812 615.492188 460.988281 614.96875 C 459.417969 615.050781 456.800781 615.53125 454.222656 615.289062 C 447.742188 614.765625 441.257812 613.71875 434.738281 613.277344 C 429.625 612.914062 424.429688 613.15625 419.277344 613.117188 C 413.71875 613.117188 408.164062 612.835938 402.648438 613.117188 C 389.640625 613.761719 376.675781 614.6875 363.714844 615.492188 C 356.023438 615.976562 348.292969 616.417969 340.601562 617.023438 C 338.46875 617.183594 336.414062 618.109375 334.28125 618.351562 C 329.367188 618.996094 324.417969 619.195312 319.585938 620 C 313.949219 620.925781 308.433594 622.417969 302.835938 623.503906 C 299.535156 624.148438 296.070312 624.109375 292.769531 624.832031 C 287.65625 625.960938 282.625 627.449219 277.589844 628.898438 C 267.726562 631.796875 257.863281 634.777344 247.996094 637.71875 C 246.628906 638.121094 245.058594 638.480469 243.972656 639.367188 C 241.917969 641.019531 240.667969 640.011719 239.582031 638.441406 C 238.171875 636.347656 238.617188 633.609375 240.507812 632.886719 C 245.863281 630.871094 251.179688 628.457031 256.695312 627.207031 C 275.496094 622.980469 294.300781 618.832031 313.222656 615.25 C 326.671875 612.714844 340.238281 610.660156 353.847656 609.171875 C 367.175781 607.722656 380.625 606.917969 394.03125 606.433594 C 406.957031 605.988281 419.921875 605.75 432.804688 606.472656 C 449.152344 607.398438 465.457031 609.050781 481.683594 611.023438 C 487.28125 611.707031 492.796875 613.800781 498.03125 615.976562 C 502.5 617.828125 503.667969 621.089844 502.417969 625.035156 Z M 417.222656 607.722656 C 417.222656 607.601562 417.261719 607.480469 417.304688 607.359375 L 401.4375 607.359375 C 401.4375 607.480469 401.4375 607.601562 401.4375 607.722656 Z M 361.699219 609.535156 C 361.699219 609.816406 361.699219 610.058594 361.738281 610.339844 C 365.765625 609.976562 369.792969 609.574219 373.859375 609.210938 C 373.859375 609.011719 373.820312 608.808594 373.777344 608.605469 C 369.753906 608.929688 365.726562 609.25 361.699219 609.574219 Z M 393.828125 609.9375 C 393.789062 609.816406 393.707031 609.695312 393.667969 609.574219 L 384.691406 609.574219 C 384.691406 609.695312 384.691406 609.816406 384.691406 609.9375 Z M 408.96875 609.050781 C 408.96875 609.171875 408.96875 609.332031 408.929688 609.453125 L 422.457031 609.453125 C 422.457031 609.332031 422.457031 609.171875 422.457031 609.050781 Z M 408.96875 609.050781 " fill-opacity="1" fill-rule="nonzero"></path>
  <path fill="#201d1e" d="M 359.644531 558.964844 C 359.082031 559.042969 358.4375 559.082031 357.3125 559.203125 C 359.042969 558.078125 360.332031 557.230469 361.660156 556.386719 C 361.539062 556.105469 361.417969 555.863281 361.257812 555.582031 C 360.492188 555.863281 359.605469 555.984375 358.960938 556.425781 C 355.378906 558.921875 351.714844 561.378906 348.292969 564.078125 C 347.488281 564.71875 347.730469 566.613281 346.964844 567.378906 C 345.636719 568.707031 343.945312 569.875 342.253906 570.679688 C 336.132812 573.617188 330.054688 576.71875 323.730469 579.175781 C 318.054688 581.390625 312.539062 580.988281 308.957031 576.113281 C 307.746094 578.570312 306.863281 581.429688 305.089844 583.605469 C 301.75 587.671875 297.199219 590.003906 291.964844 590.851562 C 288.742188 591.375 286.769531 589.683594 285.480469 587.066406 C 284.234375 584.488281 283.671875 581.832031 286.167969 578.773438 C 286.289062 580.140625 286.367188 580.90625 286.40625 581.632812 C 286.527344 583.320312 287.414062 584.128906 289.105469 583.804688 C 294.378906 582.757812 298.367188 579.699219 301.386719 575.351562 C 301.789062 574.746094 301.464844 573.175781 300.941406 572.492188 C 299.371094 570.4375 297.277344 568.746094 295.789062 566.613281 C 293.496094 563.3125 292.285156 559.566406 293.132812 555.460938 C 294.21875 550.386719 295.265625 545.3125 299.65625 541.730469 C 302.714844 539.234375 308.351562 539.71875 310.527344 543.058594 C 311.734375 544.871094 310.644531 545.515625 309.078125 546.199219 C 303.398438 548.695312 299.253906 552.683594 298.488281 559.082031 C 298.246094 561.015625 298.929688 563.511719 300.058594 565.125 C 301.988281 567.859375 304.605469 570.117188 307.0625 572.652344 C 306.015625 563.191406 311.089844 556.585938 316.96875 550.386719 C 319.34375 547.890625 321.921875 545.597656 324.578125 543.382812 C 327.558594 540.84375 332.347656 540.601562 335.328125 543.019531 C 336.171875 543.703125 336.859375 545.675781 336.496094 546.5625 C 335.890625 548.011719 334.359375 549.097656 333.113281 550.144531 C 332.992188 550.226562 331.785156 548.9375 330.777344 548.050781 C 322.683594 553.085938 315.277344 559.125 312.699219 569.3125 C 312.257812 571 312.054688 573.859375 312.902344 574.425781 C 314.230469 575.308594 316.847656 575.351562 318.457031 574.664062 C 326.914062 570.921875 335.488281 567.257812 343.542969 562.746094 C 351.632812 558.199219 359.164062 552.683594 366.894531 547.527344 C 369.46875 545.796875 371.765625 545.234375 374.945312 546.644531 C 383.480469 550.425781 385.214844 553.085938 381.671875 562.425781 C 380.101562 566.53125 377.523438 570.558594 374.421875 573.660156 C 371.804688 576.277344 367.578125 577.683594 363.714844 576.398438 C 360.410156 575.308594 359.484375 571.925781 359.324219 568.707031 C 359.164062 565.605469 359.566406 562.507812 359.726562 559.003906 Z M 363.632812 571 C 369.953125 569.070312 372.894531 564.601562 375.148438 559.726562 C 376.4375 556.949219 378.128906 553.890625 376.476562 550.910156 C 367.78125 554.777344 363.753906 561.175781 363.671875 571 Z M 363.632812 571 " fill-opacity="1" fill-rule="nonzero"></path>
  <path fill="#201d1e" d="M 282.300781 578.046875 C 279.84375 577.804688 277.992188 576.035156 277.792969 572.371094 C 277.632812 569.714844 277.792969 566.933594 278.476562 564.359375 C 279.84375 558.800781 281.699219 553.40625 283.1875 547.890625 C 283.671875 546.121094 284.316406 544.953125 286.289062 545.3125 C 288.421875 545.714844 290.835938 546.28125 290.152344 549.097656 C 289.226562 553.003906 287.65625 556.789062 286.609375 560.695312 C 285.078125 566.332031 283.75 572.046875 282.261719 578.089844 Z M 282.300781 578.046875 " fill-opacity="1" fill-rule="nonzero"></path>
  <path fill="#201d1e" d="M 296.835938 519.34375 C 295.992188 521.476562 295.386719 523.773438 294.257812 525.746094 C 293.375 527.355469 291.5625 527.316406 290.675781 525.785156 C 290.03125 524.660156 289.628906 522.40625 290.273438 521.761719 C 291.683594 520.269531 293.816406 519.464844 295.628906 518.417969 C 296.03125 518.742188 296.394531 519.023438 296.796875 519.34375 Z M 296.835938 519.34375 " fill-opacity="1" fill-rule="nonzero"></path>
</svg>
