<?xml version="1.0" encoding="UTF-8"?>
<svg xmlns="http://www.w3.org/2000/svg" xmlns:xlink="http://www.w3.org/1999/xlink" width="1080" zoomAndPan="magnify" viewBox="0 0 810 809.999993" height="1080" preserveAspectRatio="xMidYMid meet" version="1.0">
  <rect x="-81" width="972" fill="none" y="-80.999999" height="971.999992" fill-opacity="1"></rect>
  <rect x="-81" width="972" fill="none" y="-80.999999" height="971.999992" fill-opacity="1"></rect>
  <path fill="#000000" d="M 578.757812 344.917969 L 578.757812 216.160156 L 632.734375 216.160156 C 671.503906 217.898438 700.628906 247.089844 696.878906 286.882812 C 693.546875 322.019531 664.179688 344.574219 629.957031 344.917969 Z M 606.910156 319.238281 C 621.3125 318.679688 635.789062 321.53125 648.976562 314.441406 C 673.554688 301.269531 673.832031 261.269531 649.984375 247.160156 C 643.320312 243.199219 637.558594 242.292969 629.957031 241.84375 C 623.777344 241.460938 613.957031 240.800781 607.984375 241.53125 C 602.015625 242.261719 607.1875 241.566406 606.910156 242.015625 Z M 606.910156 319.238281 " fill-opacity="1" fill-rule="nonzero"></path>
  <path fill="#000000" d="M 453.210938 216.160156 L 453.210938 241.21875 L 384.726562 241.21875 L 384.242188 241.703125 L 384.242188 267.074219 L 384.726562 267.523438 L 444.878906 267.523438 L 444.878906 292.617188 L 384.242188 292.617188 L 384.242188 319.550781 L 454.148438 319.550781 L 454.148438 344.46875 L 453.660156 344.917969 L 356.125 344.917969 L 356.125 216.160156 Z M 453.210938 216.160156 " fill-opacity="1" fill-rule="nonzero"></path>
  <path fill="#000000" d="M 253.449219 216.160156 L 253.449219 266.933594 L 305.726562 266.933594 L 305.726562 216.160156 L 333.839844 216.160156 L 333.839844 344.917969 L 305.726562 344.917969 L 305.726562 293.242188 L 253.449219 293.242188 L 253.449219 344.917969 L 225.300781 344.917969 L 225.300781 216.160156 Z M 253.449219 216.160156 " fill-opacity="1" fill-rule="nonzero"></path>
  <path fill="#000000" d="M 413.328125 422.28125 C 405.101562 417.136719 396.527344 412.027344 386.808594 410.324219 C 377.089844 408.621094 361.921875 409.769531 363.242188 423.078125 C 363.96875 430.480469 373.480469 433.121094 379.449219 435 C 400.867188 441.777344 429.816406 445.007812 431.585938 473.503906 C 433.042969 496.824219 418.917969 512.359375 396.425781 516.042969 C 372.855469 519.902344 347.757812 512.253906 329.953125 496.582031 L 346.371094 476.425781 C 346.996094 476.320312 351.125 479.898438 352.097656 480.59375 C 359.25 485.597656 367.441406 489.734375 376.117188 491.230469 C 386.253906 492.96875 404.859375 492.550781 403.402344 477.847656 C 402.777344 471.628906 396.042969 468.953125 390.972656 467.074219 C 368.757812 458.839844 337.136719 458.527344 335.089844 427.699219 C 332.523438 389.472656 370.253906 379.082031 401.074219 387.351562 C 410.863281 389.960938 420.027344 394.6875 427.800781 401.113281 L 413.292969 422.316406 Z M 413.328125 422.28125 " fill-opacity="1" fill-rule="nonzero"></path>
  <path fill="#000000" d="M 162.542969 292.617188 L 198.886719 292.617188 L 210.480469 319.550781 L 151.539062 319.550781 L 141.195312 344.917969 L 112.421875 344.917969 L 166.570312 216.472656 L 180.140625 248.480469 L 162.683594 291.367188 Z M 162.542969 292.617188 " fill-opacity="1" fill-rule="nonzero"></path>
  <path fill="#000000" d="M 513.816406 292.617188 L 496.007812 248.515625 L 509.128906 217.167969 L 509.789062 216.785156 L 563.902344 344.917969 L 535.300781 344.917969 L 524.957031 319.550781 L 465.878906 319.550781 L 477.023438 292.617188 Z M 513.816406 292.617188 " fill-opacity="1" fill-rule="nonzero"></path>
  <path fill="#000000" d="M 540.089844 462.835938 L 576.882812 462.835938 L 588.027344 489.769531 L 529.433594 489.769531 L 519.089844 515.140625 L 490.039062 515.140625 L 544.464844 387.144531 C 544.847656 386.761719 545.125 388.011719 545.226562 388.257812 C 549.808594 398.265625 553.523438 408.691406 558.070312 418.734375 L 540.160156 462.835938 Z M 540.089844 462.835938 " fill-opacity="1" fill-rule="nonzero"></path>
  <path fill="#000000" d="M 271.082031 462.835938 L 307.703125 462.835938 L 319.332031 489.769531 L 260.394531 489.769531 L 250.050781 515.140625 L 221.273438 515.140625 L 275.421875 387.003906 L 289.027344 418.734375 Z M 271.082031 462.835938 " fill-opacity="1" fill-rule="nonzero"></path>
  <path fill="#000000" d="M 446.71875 386.378906 L 474.871094 386.378906 L 474.871094 515.140625 L 446.71875 515.140625 Z M 446.71875 386.378906 " fill-opacity="1" fill-rule="nonzero"></path>
  <path fill="#000000" d="M 267.058594 551.074219 L 287.78125 578.597656 L 287.78125 551.074219 L 297.671875 551.074219 L 297.671875 596.253906 L 289.167969 596.253906 L 267.058594 567.789062 L 267.058594 596.253906 L 257.164062 596.253906 L 257.164062 551.074219 Z M 267.058594 551.074219 " fill-opacity="1" fill-rule="nonzero"></path>
  <path fill="#000000" d="M 392.605469 596.253906 L 382.539062 596.253906 L 378.167969 586.382812 L 359.144531 586.523438 L 355.464844 596.21875 L 345.261719 596.21875 L 363.96875 551.039062 C 364.488281 550.378906 372.058594 550.761719 373.410156 550.898438 L 392.570312 596.253906 Z M 374.660156 577.382812 L 368.480469 562.820312 L 362.929688 577.382812 L 374.695312 577.382812 Z M 374.660156 577.382812 " fill-opacity="1" fill-rule="nonzero"></path>
  <path fill="#000000" d="M 584.347656 582.628906 L 584.796875 582.628906 C 588.027344 586.625 600.625 590.554688 603.992188 586.035156 C 606.875 582.144531 602.1875 579.847656 599.203125 578.773438 C 591.289062 575.957031 581.015625 575.816406 580.355469 564.835938 C 579.277344 547.214844 602.882812 546.519531 612.984375 555.382812 C 613.226562 555.695312 613.019531 555.9375 612.878906 556.21875 C 611.871094 558.335938 609.234375 560.910156 608.019531 563.097656 C 604.203125 560.316406 596.042969 556.390625 591.773438 559.867188 C 587.503906 563.339844 590.109375 564.453125 591.949219 565.84375 C 594.863281 568.035156 602.050781 568.867188 605.867188 570.464844 C 611.628906 572.863281 614.859375 576.445312 614.613281 583.046875 C 613.957031 600.25 587.851562 599.519531 578.757812 589.546875 L 584.3125 582.59375 Z M 584.347656 582.628906 " fill-opacity="1" fill-rule="nonzero"></path>
  <path fill="#000000" d="M 147.6875 551.074219 L 147.6875 559.589844 L 147.238281 560.039062 L 122.9375 560.039062 L 122.9375 569.632812 L 144.597656 569.632812 L 144.597656 578.597656 L 122.9375 578.597656 L 122.9375 596.253906 L 113.046875 596.253906 L 113.046875 551.074219 Z M 147.6875 551.074219 " fill-opacity="1" fill-rule="nonzero"></path>
  <path fill="#000000" d="M 696.878906 551.074219 L 696.878906 560.039062 L 683.445312 560.039062 L 682.960938 560.492188 L 682.960938 596.253906 L 673.066406 596.253906 L 673.066406 560.039062 L 659.148438 560.039062 L 659.148438 551.074219 Z M 696.878906 551.074219 " fill-opacity="1" fill-rule="nonzero"></path>
  <path fill="#000000" d="M 449.808594 551.074219 L 449.808594 586.800781 L 450.261719 587.285156 L 472.371094 587.285156 L 472.371094 596.253906 L 439.917969 596.253906 L 439.917969 551.074219 Z M 449.808594 551.074219 " fill-opacity="1" fill-rule="nonzero"></path>
  <path fill="#000000" d="M 196.246094 551.074219 L 206.140625 551.074219 L 206.140625 596.253906 L 196.246094 596.253906 Z M 196.246094 551.074219 " fill-opacity="1" fill-rule="nonzero"></path>
  <path fill="#000000" d="M 520.617188 551.074219 L 530.511719 551.074219 L 530.511719 596.253906 L 520.617188 596.253906 Z M 520.617188 551.074219 " fill-opacity="1" fill-rule="nonzero"></path>
</svg>
