<?xml version="1.0" encoding="UTF-8"?>
<svg xmlns="http://www.w3.org/2000/svg" xmlns:xlink="http://www.w3.org/1999/xlink" width="1080" zoomAndPan="magnify" viewBox="0 0 810 809.999993" height="1080" preserveAspectRatio="xMidYMid meet" version="1.0">
  <rect x="-81" width="972" fill="#ffffff" y="-80.999999" height="971.999992" fill-opacity="1"></rect>
  <rect x="-81" width="972" fill="#ffffff" y="-80.999999" height="971.999992" fill-opacity="1"></rect>
  <path fill="#b4975a" d="M 257.070312 503.261719 C 256.972656 501.929688 256.328125 500.644531 254.945312 498.960938 L 253.859375 497.628906 L 246.195312 503.90625 L 247.183594 505.089844 C 248.519531 506.722656 249.804688 507.761719 251.089844 508.105469 C 252.574219 508.5 254.203125 508.105469 255.488281 507.066406 C 256.625 506.128906 257.269531 504.695312 257.167969 503.261719 Z M 257.070312 503.261719 " fill-opacity="1" fill-rule="nonzero"></path>
  <path fill="#b4975a" d="M 300.269531 553.675781 C 298.636719 556.789062 298.339844 559.753906 299.378906 562.867188 C 300.019531 564.746094 301.109375 566.425781 302.492188 567.761719 C 303.234375 568.503906 304.074219 569.097656 305.011719 569.589844 C 310.894531 572.703125 317.914062 570.578125 321.027344 564.746094 C 324.140625 558.867188 322.015625 551.898438 316.183594 548.78125 C 313.070312 547.101562 309.558594 547.003906 306.496094 548.140625 C 303.925781 549.128906 301.652344 551.007812 300.269531 553.675781 Z M 300.269531 553.675781 " fill-opacity="1" fill-rule="nonzero"></path>
  <path fill="#b4975a" d="M 377.320312 316.238281 C 378.605469 316.238281 379.398438 315.25 379.792969 314.707031 L 379.792969 308.082031 C 379.347656 307.488281 378.457031 306.550781 377.273438 306.550781 C 374.601562 306.550781 374.453125 310.308594 374.453125 311.492188 C 374.453125 312.679688 374.800781 316.238281 377.273438 316.238281 Z M 377.320312 316.238281 " fill-opacity="1" fill-rule="nonzero"></path>
  <path fill="#b4975a" d="M 369.859375 568.355469 L 368.175781 568.058594 L 366.398438 577.796875 L 367.882812 578.042969 C 370.007812 578.4375 371.589844 578.386719 372.773438 577.84375 C 374.15625 577.203125 375.148438 575.867188 375.441406 574.238281 C 375.691406 572.753906 375.246094 571.222656 374.257812 570.234375 C 373.316406 569.292969 372.03125 568.75 369.808594 568.304688 Z M 369.859375 568.355469 " fill-opacity="1" fill-rule="nonzero"></path>
  <path fill="#b4975a" d="M 521 549.917969 C 520.554688 549.128906 520.011719 548.386719 519.417969 547.746094 C 515.761719 543.691406 509.878906 542.652344 504.9375 545.519531 C 499.253906 548.78125 497.277344 555.851562 500.585938 561.582031 C 502.316406 564.648438 504.691406 566.476562 507.902344 567.21875 C 510.867188 567.960938 514.082031 567.515625 516.601562 566.082031 C 518.480469 564.996094 519.914062 563.5625 520.949219 561.878906 C 523.074219 558.371094 523.273438 553.824219 521.050781 549.96875 Z M 521 549.917969 " fill-opacity="1" fill-rule="nonzero"></path>
  <path fill="#b4975a" d="M 449.976562 569.691406 C 447.605469 568.554688 445.035156 568.40625 441.226562 569.144531 L 439.152344 569.542969 L 443.453125 591.535156 L 445.527344 591.140625 C 449.332031 590.398438 451.507812 589.359375 453.386719 587.285156 C 455.710938 584.765625 456.597656 581.304688 455.90625 577.695312 C 455.214844 574.039062 452.992188 571.074219 449.925781 569.691406 Z M 449.976562 569.691406 " fill-opacity="1" fill-rule="nonzero"></path>
  <path fill="#b4975a" d="M 392.050781 305.957031 C 390.863281 305.957031 389.332031 306.796875 389.183594 309.714844 L 395.015625 309.714844 C 394.867188 306.601562 393.089844 305.957031 392.050781 305.957031 Z M 392.050781 305.957031 " fill-opacity="1" fill-rule="nonzero"></path>
  <path fill="#b4975a" d="M 434.753906 356.71875 L 447.058594 356.71875 C 447.058594 356.71875 447.257812 350.785156 447.058594 339.765625 C 446.8125 328.742188 440.882812 328.546875 440.882812 328.546875 C 434.507812 328.546875 434.703125 339.566406 434.703125 339.566406 L 434.703125 356.71875 Z M 434.753906 356.71875 " fill-opacity="1" fill-rule="nonzero"></path>
  <path fill="#b4975a" d="M 350.730469 311 C 350.730469 309.566406 350.433594 305.910156 347.914062 305.910156 C 345.394531 305.910156 345.046875 308.921875 345.046875 311.445312 C 345.046875 313.964844 345.144531 316.683594 347.863281 316.683594 C 350.582031 316.683594 350.730469 312.332031 350.730469 311 Z M 350.730469 311 " fill-opacity="1" fill-rule="nonzero"></path>
  <path fill="#b4975a" d="M 498.710938 356.71875 L 511.015625 356.71875 C 511.015625 356.71875 511.261719 350.785156 511.015625 339.765625 C 510.816406 328.742188 504.835938 328.546875 504.835938 328.546875 C 498.460938 328.546875 498.660156 339.566406 498.660156 339.566406 L 498.660156 356.71875 Z M 498.710938 356.71875 " fill-opacity="1" fill-rule="nonzero"></path>
  <path fill="#b4975a" d="M 414.042969 480.578125 C 414.042969 477.414062 412.710938 474.347656 410.484375 472.371094 C 408.359375 470.445312 405.839844 469.703125 401.6875 469.703125 L 399.957031 469.703125 L 399.957031 491.5 L 401.6875 491.5 C 405.839844 491.5 408.460938 490.707031 410.484375 488.878906 C 412.710938 486.902344 414.042969 483.738281 414.042969 480.578125 Z M 414.042969 480.578125 " fill-opacity="1" fill-rule="nonzero"></path>
  <path fill="#b4975a" d="M 537.707031 534.25 C 538.101562 532.769531 537.753906 531.136719 536.71875 529.851562 C 535.976562 528.914062 534.839844 528.320312 533.703125 528.171875 C 533.453125 528.171875 533.160156 528.171875 532.910156 528.171875 C 531.578125 528.269531 530.292969 528.863281 528.5625 530.296875 L 527.226562 531.386719 L 533.453125 539.09375 L 534.640625 538.15625 C 534.988281 537.910156 535.285156 537.613281 535.53125 537.367188 C 536.667969 536.328125 537.359375 535.339844 537.707031 534.300781 Z M 537.707031 534.25 " fill-opacity="1" fill-rule="nonzero"></path>
  <path fill="#b4975a" d="M 355.523438 362.796875 C 354.140625 364.328125 353.992188 366.75 353.992188 366.75 L 353.992188 385.285156 C 353.992188 385.285156 355.328125 391.214844 360.8125 391.167969 C 365.953125 391.117188 366.546875 384.542969 366.546875 384.542969 L 366.546875 355.382812 C 364.570312 357.160156 356.957031 361.265625 355.523438 362.796875 Z M 355.523438 362.796875 " fill-opacity="1" fill-rule="nonzero"></path>
  <path fill="#b4975a" d="M 428.476562 314.707031 C 428.476562 315.992188 429.367188 316.585938 430.207031 316.585938 C 431.492188 316.585938 432.875 315.398438 433.371094 314.902344 L 433.371094 311.148438 C 432.035156 311.445312 428.476562 312.183594 428.476562 314.65625 Z M 428.476562 314.707031 " fill-opacity="1" fill-rule="nonzero"></path>
  <path fill="#b4975a" d="M 359.972656 480.578125 C 359.972656 474.300781 355.082031 469.257812 348.953125 469.257812 C 342.824219 469.257812 347.816406 469.308594 347.222656 469.40625 C 342.03125 470.246094 337.980469 474.941406 337.980469 480.476562 C 337.980469 486.011719 342.871094 491.945312 349 491.945312 C 355.128906 491.945312 353.003906 491.351562 354.636719 490.3125 C 357.847656 488.335938 359.972656 484.726562 359.972656 480.578125 Z M 359.972656 480.578125 " fill-opacity="1" fill-rule="nonzero"></path>
  <path fill="#b4975a" d="M 389.628906 211.011719 C 393.878906 210.617188 396.351562 204.785156 395.558594 196.976562 C 394.816406 189.214844 391.257812 183.976562 387.007812 184.371094 C 382.757812 184.769531 380.238281 190.601562 380.980469 198.210938 C 381.769531 206.167969 385.277344 211.457031 389.578125 211.011719 Z M 389.628906 211.011719 " fill-opacity="1" fill-rule="nonzero"></path>
  <path fill="#b4975a" d="M 606.457031 444.050781 L 609.222656 434.859375 L 597.707031 436.339844 Z M 606.457031 444.050781 " fill-opacity="1" fill-rule="nonzero"></path>
  <path fill="#b4975a" d="M 405.148438 147.402344 C 276.890625 147.402344 172.554688 251.738281 172.554688 379.945312 C 172.554688 508.15625 276.890625 612.539062 405.148438 612.539062 C 533.40625 612.539062 637.742188 508.203125 637.742188 379.945312 C 637.742188 251.6875 533.40625 147.402344 405.148438 147.402344 Z M 505.085938 322.859375 C 505.085938 322.859375 528.609375 321.328125 526.4375 362.894531 L 498.710938 362.894531 L 498.710938 385.976562 C 498.710938 385.976562 499.351562 394.773438 505.332031 394.972656 C 511.261719 395.167969 511.511719 385.976562 511.511719 385.976562 L 511.511719 369.023438 L 526.238281 369.023438 C 526.238281 369.023438 530.191406 400.261719 505.578125 401.148438 C 480.964844 402.039062 483.78125 355.628906 483.78125 355.628906 C 483.78125 355.628906 482.25 325.726562 505.132812 322.859375 Z M 497.128906 469.703125 L 497.128906 464.117188 L 518.332031 464.117188 L 518.332031 469.703125 L 510.917969 469.703125 L 510.917969 497.085938 L 504.492188 497.085938 L 504.492188 469.703125 Z M 486.007812 483.9375 C 485.363281 483.542969 484.078125 482.949219 481.558594 482.058594 C 475.628906 479.882812 473.453125 477.511719 473.453125 473.164062 C 473.453125 468.8125 477.800781 463.574219 483.734375 463.574219 C 489.664062 463.574219 490.652344 464.808594 493.421875 467.230469 L 490.058594 471.628906 C 488.328125 469.703125 486.796875 468.960938 484.722656 468.960938 C 482.644531 468.960938 480.074219 470.59375 480.074219 472.617188 C 480.074219 474.644531 481.210938 475.335938 485.066406 476.769531 C 488.726562 478.105469 490.160156 478.796875 491.640625 480.082031 C 493.570312 481.714844 494.558594 484.085938 494.558594 487 C 494.558594 493.476562 489.910156 497.875 483.089844 497.875 C 476.269531 497.875 474.738281 495.898438 471.773438 491.597656 L 475.925781 487.59375 C 477.40625 490.410156 479.878906 491.992188 482.84375 491.992188 C 485.808594 491.992188 487.933594 490.066406 487.933594 487.347656 C 487.933594 484.628906 487.292969 484.777344 486.007812 483.9375 Z M 479.828125 400.507812 L 466.433594 400.507812 L 466.433594 296.714844 L 479.828125 296.714844 Z M 444.886719 209.332031 C 446.664062 213.335938 449.085938 215.660156 452.546875 216.695312 C 456.550781 217.933594 460.75 215.804688 461.9375 211.953125 C 463.171875 207.898438 460.503906 203.550781 455.90625 202.164062 C 453.386719 201.425781 450.964844 201.472656 448.246094 202.363281 L 447.851562 202.265625 L 457.933594 184.519531 L 474.6875 189.609375 L 472.808594 195.738281 L 460.851562 192.082031 L 457.734375 197.320312 C 459.019531 197.519531 459.664062 197.667969 460.453125 197.914062 C 467.523438 200.089844 471.179688 207.058594 468.957031 214.273438 C 466.632812 221.933594 459.167969 225.492188 450.816406 222.921875 C 446.070312 221.492188 442.910156 218.921875 440.683594 214.667969 L 444.886719 209.234375 Z M 440.734375 431.050781 L 440.734375 436.339844 L 429.957031 436.339844 L 429.957031 444.792969 L 441.179688 444.792969 L 441.179688 450.082031 L 423.878906 450.082031 L 423.878906 418.796875 L 441.179688 418.796875 L 441.179688 424.082031 L 429.957031 424.082031 L 429.957031 431.050781 Z M 438.953125 464.117188 L 445.378906 464.117188 L 445.378906 491.5 L 455.511719 491.5 L 455.511719 497.085938 L 438.953125 497.085938 Z M 441.574219 401.148438 C 416.960938 402.039062 419.777344 355.628906 419.777344 355.628906 C 419.777344 355.628906 418.246094 325.726562 441.128906 322.859375 C 441.128906 322.859375 464.65625 321.328125 462.480469 362.894531 L 434.753906 362.894531 L 434.753906 385.976562 C 434.753906 385.976562 435.394531 394.773438 441.375 394.972656 C 447.308594 395.167969 447.554688 385.976562 447.554688 385.976562 L 447.554688 369.023438 L 462.28125 369.023438 C 462.28125 369.023438 466.238281 400.261719 441.625 401.148438 Z M 410.585938 430.953125 L 410.585938 418.84375 L 416.664062 418.84375 L 416.664062 450.128906 L 410.585938 450.128906 L 410.585938 436.242188 L 397.339844 436.242188 L 397.339844 450.128906 L 391.257812 450.128906 L 391.257812 418.84375 L 397.339844 418.84375 L 397.339844 430.953125 Z M 393.53125 464.117188 L 402.972656 464.117188 C 407.816406 464.117188 411.671875 465.351562 414.785156 467.921875 C 418.492188 470.9375 420.667969 475.632812 420.667969 480.578125 C 420.667969 485.519531 418.441406 490.164062 414.6875 493.277344 C 411.523438 495.949219 407.914062 497.085938 402.921875 497.085938 L 393.53125 497.085938 Z M 460.800781 303.535156 L 460.800781 306.402344 L 458.28125 306.402344 L 458.28125 314.804688 C 458.28125 316.1875 459.417969 316.238281 460.800781 316.289062 L 460.800781 319.550781 C 458.773438 319.648438 457.488281 319.597656 456.5 318.859375 C 455.265625 317.917969 454.722656 316.386719 454.722656 314.804688 L 454.722656 306.402344 L 452.546875 306.402344 L 452.546875 303.535156 L 454.722656 303.535156 L 454.722656 298.445312 L 458.328125 298.445312 L 458.328125 303.535156 L 460.847656 303.535156 Z M 459.960938 464.117188 L 466.386719 464.117188 L 466.386719 497.085938 L 459.960938 497.085938 Z M 444.539062 313.171875 C 443.007812 312.878906 439.398438 312.035156 439.398438 308.183594 C 439.398438 304.328125 441.671875 303.289062 444.886719 303.289062 C 448.097656 303.289062 449.136719 304.671875 450.222656 305.511719 L 448.148438 307.441406 L 447.800781 307.191406 C 446.613281 306.351562 445.875 305.957031 444.933594 305.957031 C 443.996094 305.957031 442.808594 306.898438 442.808594 307.785156 C 442.808594 309.171875 444.191406 309.515625 445.675781 309.863281 C 447.554688 310.308594 450.816406 311.046875 450.816406 314.507812 C 450.816406 317.96875 449.332031 319.597656 444.933594 319.597656 C 440.535156 319.597656 440.042969 317.769531 439.101562 316.730469 L 441.277344 315.050781 C 442.066406 315.742188 443.203125 316.683594 444.933594 316.683594 C 446.664062 316.683594 447.160156 316.289062 447.160156 315.101562 C 447.160156 313.914062 445.972656 313.46875 444.539062 313.222656 Z M 433.765625 318.90625 C 433.566406 318.214844 433.519531 317.722656 433.46875 317.375 C 432.824219 317.96875 431.640625 319.152344 429.515625 319.152344 C 427.390625 319.152344 425.214844 317.671875 425.214844 315.003906 C 425.214844 311.097656 429.070312 309.417969 433.320312 309.070312 L 433.320312 308.625 C 433.320312 307.144531 432.378906 306.253906 431.046875 306.253906 C 429.710938 306.253906 428.425781 307.09375 427.585938 308.332031 L 425.558594 306.453125 C 426.992188 304.523438 428.96875 303.683594 431.046875 303.683594 C 433.121094 303.683594 436.484375 304.523438 436.484375 308.824219 L 436.484375 315.792969 C 436.484375 316.683594 436.730469 318.164062 436.976562 318.859375 L 433.664062 318.859375 Z M 424.324219 184.324219 C 420.914062 183.976562 418.691406 186.101562 418.097656 190.007812 L 410.238281 189.214844 C 411.523438 181.457031 417.109375 177.058594 424.71875 177.796875 C 432.332031 178.539062 437.519531 184.222656 436.828125 191.242188 C 436.433594 195.445312 434.011719 199.148438 428.675781 203.746094 L 421.410156 210.074219 L 435.097656 211.40625 L 434.457031 217.785156 L 407.027344 215.113281 L 419.382812 203.597656 C 426.992188 196.480469 429.070312 193.761719 429.414062 190.601562 C 429.710938 187.386719 427.4375 184.621094 424.273438 184.324219 Z M 406.285156 297.160156 L 410.4375 297.160156 L 418.542969 312.035156 L 418.589844 312.035156 L 418.589844 297.160156 L 422.496094 297.160156 L 422.496094 319.300781 L 418.640625 319.300781 L 410.238281 303.832031 L 410.1875 303.832031 L 410.1875 319.300781 L 406.285156 319.300781 Z M 411.722656 323.949219 L 420.964844 323.949219 L 406.878906 400.507812 L 395.65625 400.507812 L 380.683594 323.75 L 395.214844 323.75 L 403.8125 372.78125 Z M 272.589844 307.191406 L 272.589844 297.554688 C 272.589844 297.554688 319 297.554688 319 297.554688 L 319 307.242188 L 303.53125 307.242188 L 303.53125 400.507812 L 288.503906 400.507812 L 288.503906 307.242188 L 272.589844 307.242188 Z M 311.238281 463.375 C 317.367188 463.375 322.261719 466.046875 325.375 471.136719 L 319.742188 474.152344 C 317.765625 470.890625 314.898438 469.257812 311.191406 469.257812 C 304.964844 469.257812 300.367188 474.152344 300.367188 480.773438 C 300.367188 487.398438 304.964844 491.992188 311.140625 491.992188 C 317.320312 491.992188 319.296875 489.226562 319.789062 485.023438 L 312.03125 485.023438 L 312.03125 479.441406 L 327.105469 479.441406 C 327.105469 484.480469 326.609375 486.953125 325.226562 489.621094 C 322.410156 494.910156 317.417969 497.824219 311.042969 497.824219 C 301.058594 497.824219 293.742188 490.660156 293.742188 480.773438 C 293.742188 470.890625 301.109375 463.375 311.238281 463.375 Z M 324.386719 343.964844 C 324.585938 349.453125 324.386719 400.261719 324.386719 400.261719 L 310.398438 400.261719 L 310.398438 323.949219 L 323.695312 323.949219 L 323.695312 328.347656 C 323.695312 328.347656 331.160156 322.167969 338.671875 323.304688 L 338.671875 336.945312 L 334.074219 336.945312 C 334.074219 336.945312 324.191406 337.390625 324.386719 343.964844 Z M 349.050781 463.375 C 355.179688 463.375 360.46875 466.292969 363.582031 470.839844 C 364.816406 472.617188 365.707031 474.644531 366.199219 476.871094 C 366.449219 478.105469 366.597656 479.339844 366.597656 480.675781 C 366.597656 490.410156 358.835938 497.875 348.804688 497.875 C 338.769531 497.875 331.355469 490.3125 331.355469 480.429688 C 331.355469 470.542969 339.265625 463.425781 349.050781 463.425781 Z M 354.042969 401.398438 C 345.886719 401.398438 342.425781 395.714844 341.488281 393.933594 C 339.164062 389.484375 337.980469 373.472656 342.230469 366.75 C 342.230469 366.75 345.144531 362.003906 351.816406 357.507812 C 357.253906 353.851562 359.28125 352.320312 361.058594 351.132812 C 361.058594 351.132812 365.609375 347.820312 366.25 346.632812 L 366.25 336.355469 C 366.25 336.355469 365.65625 329.238281 360.8125 329.238281 C 355.96875 329.238281 355.03125 336.699219 355.03125 336.699219 L 355.03125 346.78125 L 341.242188 346.78125 C 341.242188 346.78125 338.175781 323.503906 361.058594 323.058594 C 361.058594 323.058594 380.1875 321.722656 380.1875 346.832031 L 380.1875 400.507812 L 367.238281 400.507812 L 367.238281 396.109375 C 367.238281 396.109375 362.199219 401.398438 354.042969 401.398438 Z M 341.4375 311.34375 C 341.4375 306.054688 344.15625 303.238281 347.566406 303.238281 C 352.953125 303.238281 354.339844 307.636719 354.339844 311.34375 C 354.339844 317.175781 351.078125 319.597656 347.914062 319.597656 C 344.75 319.597656 341.4375 317.472656 341.4375 311.394531 Z M 365.210938 303.289062 C 367.4375 303.289062 368.472656 304.722656 368.472656 307.339844 L 368.472656 319.351562 L 364.867188 319.351562 L 364.867188 308.332031 C 364.867188 307.488281 364.667969 306.5 363.582031 306.5 C 362.492188 306.5 361.554688 307.191406 360.269531 308.527344 L 360.269531 319.351562 L 356.660156 319.351562 L 356.660156 303.585938 L 360.269531 303.585938 L 360.269531 305.761719 C 360.960938 305.019531 362.542969 303.339844 365.210938 303.339844 Z M 367.140625 418.84375 L 387.253906 418.84375 L 387.253906 424.132812 L 380.238281 424.132812 L 380.238281 450.128906 L 374.15625 450.128906 L 374.15625 424.132812 L 367.1875 424.132812 L 367.1875 418.84375 Z M 372.527344 464.117188 L 378.953125 464.117188 L 378.953125 491.5 L 389.085938 491.5 L 389.085938 497.085938 L 372.527344 497.085938 Z M 392 303.289062 C 395.113281 303.289062 397.089844 305.214844 397.832031 307.636719 C 398.328125 309.367188 398.277344 310.800781 398.226562 312.136719 L 389.183594 312.136719 C 389.332031 315.742188 391.109375 316.386719 392.148438 316.386719 C 393.976562 316.386719 394.667969 314.855469 394.964844 314.210938 L 397.882812 315.59375 C 397.386719 316.585938 395.90625 319.648438 392.097656 319.648438 C 388.292969 319.648438 385.328125 316.632812 385.328125 311.296875 C 385.328125 305.957031 388.046875 303.339844 391.949219 303.339844 Z M 389.035156 301.558594 L 392.59375 297.011719 L 396.84375 297.011719 L 391.753906 301.558594 Z M 376.234375 184.667969 C 378.65625 180.714844 382.265625 178.242188 386.414062 177.847656 C 390.566406 177.453125 394.570312 179.183594 397.683594 182.59375 C 400.648438 185.953125 402.378906 190.402344 402.972656 196.234375 C 403.566406 202.066406 402.675781 206.761719 400.453125 210.714844 C 398.128906 214.570312 394.472656 217.140625 390.320312 217.535156 C 386.117188 217.933594 382.015625 216.25 379 212.792969 C 375.988281 209.332031 374.304688 204.984375 373.714844 198.804688 C 373.167969 193.316406 374.058594 188.375 376.285156 184.667969 Z M 375.886719 303.289062 C 376.53125 303.289062 378.160156 303.386719 379.742188 305.363281 L 379.742188 296.863281 L 383.351562 296.863281 L 383.351562 319.351562 L 379.742188 319.351562 L 379.742188 317.523438 C 379.296875 318.066406 377.964844 319.597656 375.839844 319.597656 C 372.625 319.597656 370.550781 315.992188 370.550781 311.492188 C 370.550781 306.996094 372.675781 303.289062 375.886719 303.289062 Z M 346.429688 185.90625 C 353.796875 183.679688 360.714844 186.992188 362.742188 193.714844 C 363.976562 197.71875 363.136719 202.066406 359.972656 208.394531 L 355.671875 216.992188 L 368.820312 212.988281 L 370.699219 219.117188 L 344.304688 227.125 L 351.324219 211.753906 C 355.625 202.265625 356.511719 198.953125 355.625 195.886719 C 354.683594 192.773438 351.523438 191.144531 348.457031 192.082031 C 345.195312 193.070312 343.910156 195.886719 344.898438 199.695312 L 337.335938 201.96875 C 335.558594 194.308594 339.015625 188.078125 346.382812 185.855469 Z M 339.3125 302.792969 L 335.65625 303.929688 C 335.011719 300.816406 333.085938 300.273438 331.898438 300.273438 C 328.042969 300.273438 327.453125 305.957031 327.453125 308.378906 C 327.453125 312.136719 328.6875 315.742188 331.503906 315.742188 C 334.320312 315.742188 334.667969 315.742188 335.855469 311.789062 L 339.460938 312.925781 C 339.214844 314.0625 338.96875 315.199219 337.980469 316.535156 C 336.84375 318.117188 334.914062 319.699219 331.949219 319.699219 C 328.984375 319.699219 323.300781 317.128906 323.300781 308.578125 C 323.300781 300.027344 327.253906 296.664062 332.046875 296.664062 C 337.433594 296.617188 339.015625 301.707031 339.265625 302.746094 Z M 187.777344 419.386719 L 217.382812 399.023438 L 218.519531 404.066406 L 199.886719 416.667969 L 223.660156 420.179688 L 203.542969 433.128906 L 225.882812 437.132812 L 227.019531 442.171875 L 191.433594 435.597656 L 211.351562 422.847656 L 187.824219 419.339844 Z M 208.1875 475.1875 L 221.484375 469.207031 L 215.898438 456.753906 L 202.605469 462.734375 L 200.628906 458.335938 L 229.195312 445.484375 L 231.171875 449.882812 L 220 454.925781 L 225.585938 467.378906 L 236.757812 462.339844 L 238.734375 466.738281 L 210.164062 479.585938 Z M 224.746094 503.65625 L 215.40625 488.832031 L 241.898438 472.125 L 251.238281 486.902344 L 247.480469 489.273438 L 240.710938 478.550781 L 234.335938 482.554688 L 240.710938 492.683594 L 240.910156 492.980469 L 237.644531 495.058594 L 237.152344 495.355469 L 230.578125 484.925781 L 221.78125 490.460938 L 228.550781 501.1875 L 224.796875 503.558594 Z M 243.035156 526.789062 L 239.328125 522.242188 L 243.527344 507.117188 L 242.984375 506.476562 L 233.050781 514.582031 L 229.984375 510.875 L 244.863281 498.664062 L 246.59375 497.28125 L 254.253906 491.003906 L 257.8125 495.355469 C 260.382812 498.515625 261.46875 500.59375 261.714844 502.964844 C 262.011719 505.734375 260.726562 508.699219 258.40625 510.578125 C 255.042969 513.34375 250.546875 513.394531 247.136719 510.675781 L 243.035156 526.691406 Z M 279.507812 524.761719 L 270.316406 516.015625 L 265.125 521.449219 L 274.023438 529.953125 L 270.957031 533.164062 L 262.0625 524.664062 L 254.894531 532.226562 L 264.089844 540.972656 L 261.023438 544.1875 L 248.371094 532.125 L 269.96875 509.441406 L 282.625 521.5 L 279.558594 524.710938 Z M 325.277344 567.019531 C 321.074219 574.976562 311.09375 577.894531 302.886719 573.542969 C 299.132812 571.566406 296.117188 567.859375 294.78125 563.757812 C 294.683594 563.460938 294.582031 563.164062 294.535156 562.867188 C 293.546875 559.0625 294.089844 555.207031 296.066406 551.402344 C 296.414062 550.757812 296.808594 550.117188 297.253906 549.523438 C 301.898438 543.148438 310.992188 541.023438 318.308594 544.925781 C 326.316406 549.179688 329.429688 559.160156 325.277344 567.070312 Z M 351.816406 580.613281 C 350.878906 583.480469 349.445312 585.40625 347.222656 586.839844 C 344.207031 588.765625 340.402344 589.210938 337.039062 588.125 C 333.628906 586.988281 330.8125 584.320312 329.578125 581.007812 C 328.636719 578.535156 328.636719 576.164062 329.578125 573.25 L 335.902344 554.121094 L 340.449219 555.652344 L 334.519531 573.542969 C 333.628906 576.164062 333.480469 577.5 333.777344 578.980469 C 334.273438 581.15625 336.003906 583.082031 338.425781 583.875 C 340.746094 584.664062 343.316406 584.171875 344.996094 582.6875 C 346.132812 581.699219 346.777344 580.511719 347.667969 577.894531 L 353.597656 560.003906 L 358.144531 561.484375 Z M 380.089844 575.078125 C 379.296875 579.375 375.9375 582.34375 371.589844 582.441406 L 378.855469 597.316406 L 373.121094 596.28125 L 366.546875 582.046875 L 365.707031 581.898438 L 363.433594 594.5 L 358.6875 593.660156 L 364.273438 562.867188 L 369.808594 563.855469 C 373.8125 564.597656 375.988281 565.488281 377.714844 567.167969 C 379.742188 569.097656 380.683594 572.210938 380.136719 575.078125 Z M 336.890625 540.480469 C 315.589844 531.484375 296.460938 518.585938 280.003906 502.125 C 263.59375 485.714844 250.644531 466.539062 241.648438 445.238281 C 232.308594 423.195312 227.5625 399.71875 227.5625 375.597656 C 227.5625 351.476562 237.003906 309.023438 254.847656 280.601562 C 272.195312 252.972656 296.757812 230.535156 325.820312 215.855469 L 328.292969 220.699219 C 300.070312 234.984375 276.296875 256.679688 259.441406 283.519531 C 242.144531 311.097656 233 342.925781 233 375.597656 C 233 421.957031 251.039062 465.5 283.808594 498.269531 C 316.578125 531.039062 360.171875 549.078125 406.480469 549.078125 C 452.792969 549.078125 496.386719 531.039062 529.15625 498.269531 C 561.921875 465.5 579.964844 421.910156 579.964844 375.597656 C 579.964844 329.285156 570.722656 310.703125 553.226562 283.023438 C 536.222656 256.089844 512.203125 234.390625 483.734375 220.207031 L 486.15625 215.363281 C 515.515625 229.992188 540.277344 252.382812 557.820312 280.15625 C 575.863281 308.675781 585.402344 341.691406 585.402344 375.597656 C 585.402344 409.503906 580.65625 423.195312 571.316406 445.238281 C 562.320312 466.539062 549.417969 485.667969 532.960938 502.125 C 516.550781 518.535156 497.375 531.484375 476.074219 540.480469 C 454.027344 549.820312 430.550781 554.566406 406.433594 554.566406 C 382.3125 554.566406 358.835938 549.820312 336.792969 540.480469 Z M 558.117188 322.417969 L 558.117188 336.058594 L 553.519531 336.058594 C 553.519531 336.058594 543.882812 336.503906 543.835938 343.074219 C 543.785156 348.5625 543.835938 400.457031 543.835938 400.457031 L 529.847656 400.457031 L 529.847656 323.058594 L 543.140625 323.058594 L 543.140625 327.457031 C 543.140625 327.457031 550.605469 321.28125 558.117188 322.417969 Z M 413.007812 598.898438 L 411.128906 567.664062 L 428.574219 566.625 L 428.820312 571.074219 L 416.167969 571.816406 L 416.613281 579.328125 L 428.921875 578.585938 L 429.167969 583.035156 L 416.863281 583.777344 L 417.453125 594.15625 L 430.105469 593.414062 L 430.355469 597.863281 L 412.90625 598.898438 Z M 456.796875 590.398438 C 454.128906 593.265625 451.558594 594.5 445.972656 595.589844 L 439.546875 596.875 L 433.515625 566.132812 L 440.042969 564.847656 C 445.429688 563.808594 448.691406 564.003906 452.152344 565.585938 C 456.550781 567.613281 459.566406 571.566406 460.601562 576.757812 C 461.640625 581.996094 460.304688 586.691406 456.796875 590.449219 Z M 471.671875 589.507812 L 462.382812 559.605469 L 466.976562 558.171875 L 476.269531 588.074219 Z M 488.972656 583.578125 L 478.890625 558.667969 L 472.167969 561.386719 L 470.488281 557.234375 L 488.429688 549.96875 L 490.109375 554.121094 L 483.386719 556.839844 L 493.46875 581.75 L 489.023438 583.527344 Z M 518.726562 569.9375 C 514.773438 572.210938 509.632812 572.703125 505.234375 571.320312 C 501.476562 570.132812 498.511719 567.613281 496.386719 563.90625 C 491.988281 556.246094 494.902344 546.164062 502.761719 541.617188 C 510.621094 537.070312 520.753906 539.789062 525.152344 547.496094 C 529.648438 555.308594 526.78125 565.289062 518.726562 569.9375 Z M 551.792969 546.0625 L 536.71875 541.765625 L 536.074219 542.308594 L 544.128906 552.292969 L 540.375 555.308594 L 520.703125 530.941406 L 525.050781 527.429688 C 528.214844 524.859375 530.339844 523.824219 532.714844 523.625 C 535.480469 523.378906 538.445312 524.664062 540.277344 526.984375 C 542.992188 530.398438 543.042969 534.894531 540.277344 538.253906 L 556.238281 542.503906 L 551.691406 546.164062 Z M 568.597656 530.691406 C 568.25 531.1875 567.855469 531.683594 567.410156 532.125 C 567.0625 532.472656 566.71875 532.820312 566.324219 533.113281 C 564.097656 534.894531 561.378906 535.636719 558.613281 535.191406 C 556.785156 534.894531 555.648438 534.351562 553.71875 532.964844 L 556.339844 528.765625 C 557.871094 529.902344 558.511719 530.296875 559.402344 530.496094 C 561.035156 530.988281 562.960938 530.347656 564.34375 528.914062 C 566.421875 526.789062 566.371094 523.675781 564.246094 521.550781 C 562.960938 520.3125 561.480469 519.917969 559.75 520.214844 C 558.890625 520.414062 557.046875 521.121094 554.214844 522.339844 C 549.816406 524.21875 546.503906 523.921875 543.984375 521.449219 C 540.621094 518.1875 540.917969 512.703125 544.675781 508.847656 C 547.34375 506.128906 550.308594 505.386719 554.410156 506.375 L 553.375 510.726562 C 550.65625 510.132812 549.371094 510.378906 547.835938 511.960938 C 546.007812 513.839844 545.8125 516.410156 547.394531 517.992188 C 548.132812 518.730469 549.121094 518.980469 550.359375 518.730469 C 551.082031 518.566406 552.8125 517.890625 555.546875 516.707031 C 560.636719 514.480469 564.246094 514.828125 567.359375 517.84375 C 571.019531 521.402344 571.460938 526.589844 568.597656 530.644531 Z M 601.464844 484.429688 C 601.363281 486.011719 600.871094 487.59375 599.980469 489.175781 C 599.140625 490.558594 598.101562 491.746094 596.917969 492.585938 C 595.53125 493.527344 593.949219 494.117188 592.222656 494.265625 C 590.390625 494.414062 589.109375 494.167969 586.933594 493.277344 L 588.414062 488.535156 C 590.144531 489.273438 590.886719 489.472656 591.824219 489.472656 C 593.554688 489.523438 595.234375 488.433594 596.226562 486.753906 C 597.707031 484.183594 596.917969 481.167969 594.296875 479.636719 C 592.765625 478.746094 591.183594 478.699219 589.652344 479.441406 C 588.894531 479.835938 587.277344 480.972656 584.808594 482.851562 C 581 485.765625 577.738281 486.261719 574.675781 484.480469 C 570.621094 482.109375 569.535156 476.722656 572.253906 472.074219 C 574.179688 468.765625 576.851562 467.332031 581.101562 467.332031 L 581.101562 471.828125 C 578.332031 471.878906 577.195312 472.46875 576.109375 474.398438 C 574.773438 476.671875 575.21875 479.191406 577.148438 480.328125 C 578.035156 480.871094 579.074219 480.871094 580.210938 480.328125 C 580.871094 480 582.386719 478.914062 584.757812 477.066406 C 589.15625 473.707031 592.765625 473.113281 596.472656 475.289062 C 599.929688 477.265625 601.710938 480.773438 601.464844 484.382812 Z M 609.964844 468.320312 L 609.371094 468.070312 L 585.300781 457.691406 L 582.433594 464.363281 L 578.332031 462.585938 L 585.992188 444.84375 L 590.097656 446.621094 L 587.230469 453.292969 L 611.25 463.625 L 611.890625 463.921875 L 610.015625 468.320312 Z M 622.273438 433.324219 L 620.988281 433.472656 L 614.019531 434.3125 L 610.113281 447.265625 L 615.5 452.109375 L 616.339844 452.898438 L 614.859375 457.792969 L 613.820312 456.851562 L 587.527344 433.175781 L 622.125 428.53125 L 623.753906 428.332031 Z M 623.953125 419.785156 L 611.644531 417.660156 L 592.320312 424.824219 L 593.257812 419.386719 L 606.851562 414.394531 L 595.730469 405.054688 L 596.667969 399.667969 L 612.4375 412.914062 L 624.742188 415.039062 L 625.78125 415.238281 L 624.941406 419.980469 L 623.902344 419.785156 Z M 623.953125 419.785156 " fill-opacity="1" fill-rule="nonzero"></path>
</svg>
